<?xml version="1.0" standalone="no"?>
<svg xmlns:xlink="http://www.w3.org/1999/xlink" id="wave" style="transform:rotate(0deg); transition: 0.3s" viewBox="0 0 1440 490" version="1.1" xmlns="http://www.w3.org/2000/svg"><defs><linearGradient id="sw-gradient-0" x1="0" x2="0" y1="1" y2="0"><stop stop-color="rgba(0, 89.992, 255, 1)" offset="0%"/><stop stop-color="rgba(11, 179.775, 255, 1)" offset="100%"/></linearGradient></defs><path style="transform:translate(0, 0px); opacity:1" fill="url(#sw-gradient-0)" d="M0,392L80,334.8C160,278,320,163,480,163.3C640,163,800,278,960,285.8C1120,294,1280,196,1440,163.3C1600,131,1760,163,1920,187.8C2080,212,2240,229,2400,269.5C2560,310,2720,376,2880,375.7C3040,376,3200,310,3360,277.7C3520,245,3680,245,3840,269.5C4000,294,4160,343,4320,302.2C4480,261,4640,131,4800,122.5C4960,114,5120,229,5280,245C5440,261,5600,180,5760,122.5C5920,65,6080,33,6240,57.2C6400,82,6560,163,6720,212.3C6880,261,7040,278,7200,261.3C7360,245,7520,196,7680,212.3C7840,229,8000,310,8160,334.8C8320,359,8480,327,8640,334.8C8800,343,8960,392,9120,375.7C9280,359,9440,278,9600,261.3C9760,245,9920,294,10080,294C10240,294,10400,245,10560,212.3C10720,180,10880,163,11040,163.3C11200,163,11360,180,11440,187.8L11520,196L11520,490L11440,490C11360,490,11200,490,11040,490C10880,490,10720,490,10560,490C10400,490,10240,490,10080,490C9920,490,9760,490,9600,490C9440,490,9280,490,9120,490C8960,490,8800,490,8640,490C8480,490,8320,490,8160,490C8000,490,7840,490,7680,490C7520,490,7360,490,7200,490C7040,490,6880,490,6720,490C6560,490,6400,490,6240,490C6080,490,5920,490,5760,490C5600,490,5440,490,5280,490C5120,490,4960,490,4800,490C4640,490,4480,490,4320,490C4160,490,4000,490,3840,490C3680,490,3520,490,3360,490C3200,490,3040,490,2880,490C2720,490,2560,490,2400,490C2240,490,2080,490,1920,490C1760,490,1600,490,1440,490C1280,490,1120,490,960,490C800,490,640,490,480,490C320,490,160,490,80,490L0,490Z"/></svg>